<?xml version="1.0" encoding="UTF-8" standalone="no"?><svg xmlns="http://www.w3.org/2000/svg" xmlns:xlink="http://www.w3.org/1999/xlink" fill="#000000" height="239.5" preserveAspectRatio="xMidYMid meet" version="1" viewBox="0.0 0.0 239.5 239.5" width="239.5" zoomAndPan="magnify"><g id="change1_1"><path d="M239.5,120.8H0v-2h239.5V120.8z M120.8,0h-2v239.5h2V0z M205.2,203.8L35.8,34.4l-1.4,1.4l169.4,169.4 L205.2,203.8z M205.2,35.8l-1.4-1.4L34.4,203.8l1.4,1.4L205.2,35.8z M229,168.9L11.4,68.9l-0.8,1.8l217.7,100L229,168.9z M170.7,11.3l-1.8-0.8l-100,217.7l1.8,0.8L170.7,11.3z M162.3,231.7L79.1,7.1l-1.9,0.7l83.2,224.6L162.3,231.7z M232.4,79.1 l-0.7-1.9L7.1,160.4l0.7,1.9L232.4,79.1z" fill="#010106"/></g></svg>